# xmcd CD database file
# Copyright (C) 1993-1998 Ti Kan
# 
# Track frame offsets:
#     150
#     14613
#     26450
#     38538
#     51413
#     61800
#     73988
#     86688
#     98675
#     110888
#     124463
#     137038
#     149213
#     161838
#     174888
#     187450
#     198675
#     210063
#     224313
#     239750
#     260713
# 
# Disc length: 3624 seconds
# 
# Revision: 1
# Processed by: cddbd v1.4b41PL1 Copyright (c) Steve Scherf et al.
# Submitted via: DiscPlay 4.0.4
# 
DISCID=520e2615
DTITLE=Lightnin' Hopkins - (1946 - 1960)
DYEAR=1900
DGENRE=
TTITLE0=That Mean Old Twister
TTITLE1=Short Haired Woman
TTITLE2=Can't Get That Woman Off My Mind
TTITLE3=You Are Not Going To Worry My Life Anymore
TTITLE4=You're Gonna Miss Me (Miss Me Blues)
TTITLE5=Sugar On My Mind (Sugar Mama)
TTITLE6=Nightmare Blues
TTITLE7=Someday Baby
TTITLE8=Come Back Baby
TTITLE9=The Moon Is Rising (Moonrise Blues)
TTITLE10=Howling Wolf Blues
TTITLE11=Have To Let You Go
TTITLE12=(Mama's) Baby Child
TTITLE13=Whiskey Headed Woman (Liquor Drinkin' Woman)
TTITLE14=Shining Moon
TTITLE15=I Wonder (Why)
TTITLE16=Papa Bones Boogie (Buck Dance Boogie)
TTITLE17=I've Been A Bad Man (Mad Blues)
TTITLE18=Corrine, Corrina
TTITLE19=Tom Moore's Farm
TTITLE20=The Slop
EXTD=
EXTT0=
EXTT1=
EXTT2=
EXTT3=
EXTT4=
EXTT5=
EXTT6=
EXTT7=
EXTT8=
EXTT9=
EXTT10=
EXTT11=
EXTT12=
EXTT13=
EXTT14=
EXTT15=
EXTT16=
EXTT17=
EXTT18=
EXTT19=
EXTT20=
PLAYORDER=
